<svg width="21" height="20" viewBox="0 0 21 20" fill="none" xmlns="http://www.w3.org/2000/svg">
<g clip-path="url(#clip0_16565_379)">
<path d="M9.63868 0.806233C7.62267 1.02839 5.73306 1.89835 4.25343 3.28558C2.7738 4.6728 1.78396 6.50246 1.43243 8.49998C1.22007 9.74475 1.25618 11.0192 1.53868 12.25C1.55573 12.3361 1.59072 12.4176 1.64138 12.4893C1.69204 12.561 1.75722 12.6212 1.83269 12.666C1.90816 12.7108 1.99223 12.7392 2.07941 12.7494C2.16659 12.7595 2.25493 12.7512 2.33868 12.725C2.4927 12.6759 2.62171 12.5691 2.69862 12.4269C2.77554 12.2847 2.79438 12.1183 2.75118 11.9625C2.52079 10.9365 2.48685 9.87612 2.65118 8.83748C2.92483 7.13643 3.73214 5.56641 4.95647 4.3542C6.18081 3.14199 7.7588 2.35036 9.46249 2.09366C11.1662 1.83696 12.9074 2.12848 14.4345 2.92611C15.9617 3.72374 17.1958 4.98618 17.9585 6.53108C18.7212 8.07597 18.9731 9.82333 18.6778 11.5208C18.3824 13.2182 17.5552 14.7778 16.3154 15.9742C15.0757 17.1707 13.4878 17.9422 11.7809 18.1771C10.0741 18.412 8.3368 18.0983 6.81993 17.2812C6.68223 17.2118 6.52373 17.1957 6.37489 17.2361C6.22606 17.2765 6.09741 17.3705 6.01368 17.5C5.96684 17.5761 5.93686 17.6614 5.92577 17.75C5.91468 17.8387 5.92273 17.9287 5.94939 18.014C5.97604 18.0993 6.02068 18.1779 6.08029 18.2445C6.1399 18.3111 6.21309 18.3641 6.29493 18.4C7.59075 19.0898 9.03044 19.4656 10.4981 19.4973C11.9657 19.5289 13.4203 19.2155 14.7446 18.5822C16.069 17.9489 17.2261 17.0135 18.1228 15.8512C19.0195 14.6889 19.6308 13.3323 19.9073 11.8907C20.1839 10.449 20.118 8.96248 19.715 7.5509C19.3121 6.13932 18.5832 4.8421 17.5872 3.7637C16.5912 2.6853 15.3559 1.85586 13.9808 1.34217C12.6056 0.828486 11.129 0.644913 9.66993 0.806233H9.63868Z" fill="white"/>
<path d="M9.15108 14.1688L15.8386 7.50001C15.955 7.38291 16.0203 7.2245 16.0203 7.05938C16.0203 6.89427 15.955 6.73586 15.8386 6.61876C15.7215 6.50235 15.5631 6.43701 15.398 6.43701C15.2328 6.43701 15.0744 6.50235 14.9573 6.61876L9.15108 12.425C9.11978 12.4545 9.07843 12.4708 9.03546 12.4708C8.99248 12.4708 8.95113 12.4545 8.91983 12.425L6.38233 9.86876C6.26523 9.75235 6.10682 9.68701 5.94171 9.68701C5.77659 9.68701 5.61818 9.75235 5.50108 9.86876C5.38467 9.98586 5.31934 10.1443 5.31934 10.3094C5.31934 10.4745 5.38467 10.6329 5.50108 10.75L8.91983 14.1688C8.95113 14.1982 8.99248 14.2146 9.03546 14.2146C9.07843 14.2146 9.11978 14.1982 9.15108 14.1688Z" fill="white"/>
</g>
<defs>
<clipPath id="clip0_16565_379">
<rect width="20" height="20" fill="white" transform="translate(0.669922)"/>
</clipPath>
</defs>
</svg>
