<svg width="121" height="100" viewBox="0 0 121 100" fill="none" xmlns="http://www.w3.org/2000/svg">
<path d="M120.355 50.0005C120.355 36.7396 115.283 24.0217 106.254 14.6448C97.2258 5.2679 84.9805 1.73896e-06 72.2122 0C59.4439 -1.73896e-06 47.1986 5.2679 38.1699 14.6448C29.1413 24.0217 24.0691 36.7396 24.0691 50.0005H39.114C44.0994 50.0005 47.9875 45.6614 49.8135 40.8434C51.0124 37.6801 52.8317 34.7731 55.1909 32.3225C59.7052 27.6341 65.8281 25.0002 72.2122 25.0002C78.5963 25.0002 84.7192 27.6341 89.2335 32.3225C93.7478 37.011 96.2836 43.37 96.2836 50.0005H120.355Z" fill="white"/>
<path d="M92.6223 69.1337C95.0417 63.0673 96.2872 56.5655 96.2872 49.9995H120.356C120.356 77.6139 98.8016 99.9997 72.2129 99.9997C68.049 99.9997 64.0083 99.4508 60.155 98.4187C62.3352 97.8353 64.4782 97.0924 66.5674 96.1938C72.4085 93.6809 77.7157 89.9981 82.1862 85.3551C86.6568 80.7121 90.2031 75.2001 92.6223 69.1337Z" fill="white"/>
<path d="M0 49.9995C-9.04453e-07 56.5658 1.24526 63.0676 3.66467 69.134C6.0841 75.2004 9.63028 80.7124 14.1008 85.3554C18.5713 89.9981 23.8785 93.6812 29.7195 96.194C35.5605 98.7068 41.8208 100 48.1432 100C54.4652 100 60.7256 98.7068 66.5666 96.194C72.4076 93.6812 77.7149 89.9981 82.1854 85.3554C86.656 80.7124 90.202 75.2004 92.6215 69.134C95.0409 63.0676 96.2863 56.5658 96.2863 49.9995H81.2413C76.2559 49.9995 72.3679 54.3386 70.5418 59.1563C70.49 59.2936 70.4366 59.4303 70.3823 59.5669C69.1726 62.6 67.3996 65.3561 65.1641 67.6775C62.929 69.9988 60.2752 71.8405 57.3549 73.0969C54.4345 74.3533 51.3044 74.9999 48.1432 74.9999C44.982 74.9999 41.8518 74.3533 38.9315 73.0969C36.0108 71.8405 33.3573 69.9988 31.1219 67.6775C28.8867 65.3561 27.1136 62.6 25.9039 59.5669C24.6942 56.5336 24.0716 53.2827 24.0716 49.9995H0Z" fill="white"/>
<path d="M0 50.0005C0 22.3859 21.5543 0 48.1429 0C52.3059 0 56.3454 0.548736 60.1983 1.58041C51.931 3.79232 44.3046 8.26863 38.165 14.6448C29.1364 24.0216 24.0642 36.7396 24.0642 50.0005H0Z" fill="white"/>
</svg>
