<svg width="100" height="100" viewBox="0 0 100 100" fill="none" xmlns="http://www.w3.org/2000/svg">
<path d="M5.27344 0C7.76065 22.4996 26.8361 39.9999 49.9989 39.9999C73.1614 39.9999 92.2371 22.4996 94.7241 0H62.5425C60.5558 4.98052 55.6882 8.49992 49.9989 8.49992C44.3094 8.49992 39.4421 4.98052 37.455 0H5.27344Z" fill="white"/>
<path opacity="0.6" d="M100 40.0002C94.8735 38.3762 89.4142 37.5 83.7499 37.5C54.0645 37.5 30 61.5648 30 91.2497C30 94.2293 30.2425 97.1522 30.7086 99.9997H64.1052C62.9131 97.3269 62.2502 94.3658 62.2502 91.2497C62.2502 79.3757 71.8759 69.7498 83.7499 69.7498C90.2399 69.7498 96.0579 72.6252 100 77.1715V40.0002Z" fill="white"/>
<path d="M0 89.9997C16.5686 89.9997 30 76.5682 30 60C30 43.4314 16.5686 30 0 30V50.9998C4.97054 50.9998 8.99996 55.0292 8.99996 60C8.99996 64.9704 4.97054 68.9998 0 68.9998V89.9997Z" fill="white"/>
</svg>
