<svg width="102" height="100" viewBox="0 0 102 100" fill="none" xmlns="http://www.w3.org/2000/svg">
<path d="M77.5321 43.8871C76.0881 45.3171 74.9823 47.0428 74.2935 48.9411C73.6046 50.8398 73.3497 52.8644 73.5467 54.8711L73.4781 54.8036C73.6808 57.1658 73.3569 59.5426 72.5297 61.769C71.7025 63.995 70.3918 66.0167 68.6891 67.693C66.9859 69.3689 64.9318 70.6593 62.6697 71.4731C60.408 72.2872 57.9927 72.606 55.593 72.4065L55.6616 72.474C52.791 72.2111 49.9079 72.8257 47.4049 74.2346C44.9024 75.6435 42.9021 77.7777 41.6771 80.3465C40.4521 82.9153 40.0616 85.7931 40.5592 88.5884C41.0572 91.3833 42.4185 93.9593 44.4581 95.9648C46.4977 97.9703 49.1161 99.308 51.9562 99.7951C54.7967 100.283 57.7203 99.8956 60.3291 98.6877C62.938 97.4794 65.1044 95.5092 66.5336 93.0446C67.9628 90.5801 68.585 87.742 68.3153 84.9167L68.3877 84.9842C68.185 82.6224 68.5084 80.2452 69.3356 78.0188C70.1628 75.7928 71.4739 73.7711 73.1767 72.0948C74.8799 70.4189 76.9339 69.1285 79.1957 68.3147C81.4578 67.5006 83.8727 67.1819 86.2727 67.3814L86.2003 67.3139C88.5451 67.5212 90.9055 67.1429 93.0625 66.2136C95.219 65.2843 97.1028 63.8342 98.5385 61.9977C99.9742 60.1613 100.916 57.9975 101.276 55.7078C101.636 53.4176 101.403 51.0753 100.598 48.8972C99.7932 46.7196 98.4428 44.777 96.6722 43.2496C94.9016 41.7222 92.7679 40.6595 90.4689 40.1599C88.1698 39.6604 85.7797 39.7399 83.5202 40.3913C81.2608 41.0431 79.2052 42.2454 77.5436 43.8871H77.5321Z" fill="white"/>
<path d="M49.4243 63.6315L49.3519 63.564C51.3915 63.7661 53.4513 63.5197 55.3827 62.8425C57.3137 62.1652 59.0679 61.0743 60.5181 59.6481C61.9679 58.222 63.0781 56.4962 63.7674 54.5961C64.4571 52.6959 64.7089 50.669 64.5051 48.6612L64.5774 48.7287C64.3747 46.3665 64.6986 43.9897 65.5254 41.7633C66.3526 39.5373 67.6637 37.5156 69.3665 35.8393C71.0696 34.1634 73.1237 32.873 75.3854 32.0592C77.6476 31.2449 80.0624 30.9264 82.4625 31.1258L82.3901 31.0583C85.2611 31.3238 88.145 30.7109 90.6491 29.3037C93.1535 27.8964 95.1554 25.7631 96.3823 23.1948C97.6091 20.6265 98.0012 17.7482 97.5051 14.9525C97.009 12.1568 95.6488 9.57982 93.6096 7.573C91.5707 5.56623 88.9524 4.2273 86.1119 3.73896C83.2714 3.25059 80.3471 3.63651 77.7375 4.84411C75.1279 6.05167 72.9606 8.02215 71.5307 10.4867C70.1007 12.9513 69.4781 15.79 69.7479 18.6156L69.6793 18.5443C69.8824 20.9065 69.5593 23.2838 68.7325 25.5103C67.9057 27.7368 66.5946 29.7588 64.8918 31.4352C63.1886 33.1111 61.1342 34.4015 58.8721 35.2153C56.6096 36.0291 54.1943 36.3471 51.7943 36.1472L51.8628 36.2184C49.8232 36.0163 47.7631 36.2627 45.8321 36.9399C43.9011 37.6168 42.1469 38.7081 40.6967 40.1343C39.2465 41.5604 38.1366 43.2862 37.447 45.1864C36.7577 47.0865 36.5059 49.1134 36.7097 51.1212L36.6411 51.0537C36.8431 53.4155 36.5188 55.7923 35.6916 58.0184C34.8641 60.244 33.5534 62.2657 31.8506 63.9416C30.1477 65.6175 28.0938 66.9075 25.8322 67.7221C23.5707 68.5362 21.1558 68.8553 18.7561 68.6566L18.8247 68.7241C15.9538 68.4586 13.0696 69.0713 10.5655 70.4787C8.06143 71.8861 6.05936 74.0192 4.83244 76.5876C3.60548 79.156 3.21334 82.0342 3.70954 84.8299C4.20574 87.6256 5.56613 90.2026 7.60508 92.2093C9.64406 94.2163 12.2624 95.5551 15.1029 96.0434C17.9434 96.5316 20.8679 96.1458 23.4773 94.9382C26.0868 93.7307 28.2543 91.7604 29.6841 89.2959C31.1141 86.8309 31.7367 83.9925 31.4669 81.1668L31.5393 81.2343C31.3366 78.8722 31.6605 76.4954 32.4876 74.2689C33.3145 72.0429 34.6255 70.0212 36.3283 68.3449C38.0315 66.669 40.0855 65.3786 42.3473 64.5649C44.6094 63.7507 47.0243 63.432 49.4243 63.6315Z" fill="white"/>
<path d="M23.8895 56.1048C25.3337 54.6752 26.4393 52.9494 27.1276 51.0508C27.8158 49.1521 28.0698 47.1271 27.8712 45.1208L27.9435 45.1883C27.7408 42.8257 28.0645 40.4478 28.8921 38.221C29.7198 35.9942 31.0313 33.9722 32.7353 32.2959C34.4392 30.6197 36.494 29.3297 38.7569 28.5161C41.0198 27.7025 43.4358 27.3849 45.8362 27.5854L45.7638 27.5179C48.6337 27.7826 51.5168 27.1695 54.0197 25.7623C56.5227 24.3552 58.5234 22.2224 59.7499 19.6549C60.976 17.0874 61.3677 14.2101 60.8716 11.4155C60.3755 8.62079 59.0153 6.04479 56.9772 4.03872C54.9391 2.03265 52.3215 0.694178 49.4822 0.205843C46.6428 -0.282529 43.7193 0.103054 41.1108 1.3099C38.502 2.51675 36.3351 4.48618 34.9055 6.9496C33.4756 9.41303 32.8526 12.2506 33.1216 15.0752L33.053 15.0077C33.2557 17.3697 32.9319 19.7467 32.1047 21.9729C31.2775 24.1991 29.9668 26.2208 28.2638 27.897C26.5609 29.5731 24.5067 30.8632 22.2448 31.6771C19.983 32.4913 17.5678 32.81 15.168 32.6105L15.2366 32.678C12.8917 32.471 10.5316 32.8502 8.3751 33.7798C6.21861 34.7095 4.33542 36.16 2.90008 37.9968C1.46475 39.8332 0.523707 41.997 0.164101 44.2868C-0.195467 46.5769 0.0380596 48.9192 0.843039 51.0965C1.64802 53.2742 2.99846 55.2164 4.76917 56.7434C6.53988 58.2708 8.67359 59.3332 10.9726 59.8327C13.2715 60.3318 15.6614 60.252 17.9207 59.6006C20.18 58.9488 22.2356 57.7465 23.8971 56.1048H23.8895Z" fill="white"/>
</svg>
