<svg width="149" height="100" viewBox="0 0 149 100" fill="none" xmlns="http://www.w3.org/2000/svg">
<path fill-rule="evenodd" clip-rule="evenodd" d="M62.7276 17.2861C47.2902 26.7671 26.8643 39.2753 17.3365 45.0821L0.0124518 55.6407L0.000344028 77.6656C-0.0106631 96.1375 0.236996 99.5964 1.53363 99.1074C2.75542 98.6465 56.9896 65.7795 86.4391 47.6528L91.9889 44.2371L116.158 44.5292C148.754 44.923 148.734 44.5779 117.175 63.0065C99.3428 73.4201 93.1733 77.5661 92.3533 79.6845C91.7534 81.2349 91.4055 86.4401 91.5795 91.2515L91.8965 100H119.965H148.033V51.0024C148.033 8.62631 147.809 1.86638 146.382 0.979192C145.452 0.40252 132.95 -0.0248437 117.763 0.00112275L90.7958 0.048728L62.7276 17.2861Z" fill="white"/>
</svg>
