<svg width="20" height="20" viewBox="0 0 20 20" fill="none" xmlns="http://www.w3.org/2000/svg">
<g clip-path="url(#clip0_16565_331)">
<path d="M8.96876 0.806233C6.95274 1.02839 5.06314 1.89835 3.58351 3.28558C2.10388 4.6728 1.11404 6.50246 0.762512 8.49998C0.550145 9.74475 0.586255 11.0192 0.868762 12.25C0.88581 12.3361 0.920802 12.4176 0.971459 12.4893C1.02212 12.561 1.0873 12.6212 1.16277 12.666C1.23824 12.7108 1.3223 12.7392 1.40948 12.7494C1.49666 12.7595 1.58501 12.7512 1.66876 12.725C1.82278 12.6759 1.95179 12.5691 2.0287 12.4269C2.10562 12.2847 2.12446 12.1183 2.08126 11.9625C1.85086 10.9365 1.81693 9.87612 1.98126 8.83748C2.25491 7.13643 3.06221 5.56641 4.28655 4.3542C5.51089 3.14199 7.08888 2.35036 8.79257 2.09366C10.4963 1.83696 12.2374 2.12848 13.7646 2.92611C15.2918 3.72374 16.5259 4.98618 17.2886 6.53108C18.0513 8.07597 18.3032 9.82333 18.0079 11.5208C17.7125 13.2182 16.8852 14.7778 15.6455 15.9742C14.4058 17.1707 12.8179 17.9422 11.111 18.1771C9.4042 18.412 7.66687 18.0983 6.15001 17.2812C6.01231 17.2118 5.8538 17.1957 5.70497 17.2361C5.55614 17.2765 5.42749 17.3705 5.34376 17.5C5.29692 17.5761 5.26694 17.6614 5.25585 17.75C5.24475 17.8387 5.25281 17.9287 5.27946 18.014C5.30612 18.0993 5.35076 18.1779 5.41037 18.2445C5.46998 18.3111 5.54317 18.3641 5.62501 18.4C6.92083 19.0898 8.36052 19.4656 9.82815 19.4973C11.2958 19.5289 12.7503 19.2155 14.0747 18.5822C15.399 17.9489 16.5561 17.0135 17.4529 15.8512C18.3496 14.6889 18.9608 13.3323 19.2374 11.8907C19.5139 10.449 19.4481 8.96248 19.0451 7.5509C18.6421 6.13932 17.9133 4.8421 16.9173 3.7637C15.9213 2.6853 14.686 1.85586 13.3108 1.34217C11.9357 0.828486 10.4591 0.644913 9.00001 0.806233H8.96876Z" fill="#2B2B2B"/>
<path d="M8.48116 14.1688L15.1687 7.50001C15.2851 7.38291 15.3504 7.2245 15.3504 7.05938C15.3504 6.89427 15.2851 6.73586 15.1687 6.61876C15.0516 6.50235 14.8932 6.43701 14.728 6.43701C14.5629 6.43701 14.4045 6.50235 14.2874 6.61876L8.48116 12.425C8.44986 12.4545 8.40851 12.4708 8.36553 12.4708C8.32256 12.4708 8.28121 12.4545 8.24991 12.425L5.71241 9.86876C5.59531 9.75235 5.4369 9.68701 5.27178 9.68701C5.10667 9.68701 4.94826 9.75235 4.83116 9.86876C4.71475 9.98586 4.64941 10.1443 4.64941 10.3094C4.64941 10.4745 4.71475 10.6329 4.83116 10.75L8.24991 14.1688C8.28121 14.1982 8.32256 14.2146 8.36553 14.2146C8.40851 14.2146 8.44986 14.1982 8.48116 14.1688Z" fill="#2B2B2B"/>
</g>
<defs>
<clipPath id="clip0_16565_331">
<rect width="20" height="20" fill="white"/>
</clipPath>
</defs>
</svg>
