<svg width="238" height="24" viewBox="0 0 238 24" fill="none" xmlns="http://www.w3.org/2000/svg">
<path opacity="0.8" fill-rule="evenodd" clip-rule="evenodd" d="M125.988 0.33094C119.802 1.65687 116.148 7.08287 116.994 13.6862C117.712 19.2881 121.172 22.7994 126.915 23.7535C131.179 24.4619 135.279 23.627 138.181 21.4596C140.861 19.4584 142.21 16.7091 142.452 12.7616C142.846 6.31117 139.358 1.59871 133.244 0.322241C131.17 -0.110705 128.031 -0.106977 125.988 0.33094ZM199.49 0.218851C196.204 0.763886 193.917 2.25111 192.83 4.55055C191.796 6.7389 192.094 10.2427 193.441 11.7285C194.087 12.4408 195.555 13.3004 196.669 13.6196C197.213 13.7751 199.564 14.1137 201.894 14.3719C206.973 14.9346 207.749 15.2465 207.749 16.7252C207.749 17.4815 207.602 17.787 207.038 18.2025C206.426 18.6526 205.911 18.7369 203.38 18.8015C200.715 18.8691 200.324 18.8216 199.297 18.3044C198.551 17.9279 198.039 17.4559 197.801 16.9246L197.44 16.1168H194.591H191.742L191.885 16.9246C192.515 20.4776 194.493 22.5628 198.12 23.4976C200.126 24.0145 205.217 24.0732 207.118 23.6012C209.909 22.9085 211.756 21.6798 212.772 19.8404C214.753 16.2563 213.141 11.7526 209.445 10.5435C208.738 10.3121 206.331 9.91243 204.096 9.65545C198.851 9.0525 197.472 8.42793 197.877 6.83831C198.152 5.75694 199.782 5.09111 202.199 5.07247C203.309 5.06402 204.52 5.14082 204.891 5.24347C205.775 5.48753 207.103 6.60046 207.386 7.33389C207.602 7.89483 207.708 7.91521 210.391 7.91521H213.173L213.17 7.10747C213.167 6.08152 212.208 4.04056 211.195 2.90401C210.222 1.81121 207.722 0.584693 205.747 0.230532C204.059 -0.0721824 201.276 -0.0774017 199.49 0.218851ZM14.3769 4.44816C10.8387 6.62606 6.15719 9.49937 3.97346 10.8332L0.00285392 13.2587L7.88499e-05 18.3181C-0.00244394 22.5613 0.0543187 23.3559 0.351503 23.2436C0.631533 23.1377 13.0618 15.5877 19.8115 11.4238L21.0835 10.6391L26.6231 10.7062C34.0938 10.7967 34.0893 10.7174 26.8562 14.9507C22.769 17.3429 21.355 18.2952 21.167 18.7819C21.0295 19.138 20.9498 20.3337 20.9897 21.4389L21.0623 23.4486H27.4954H33.9286V12.1932C33.9286 2.45889 33.8773 0.906048 33.5501 0.70225C33.337 0.569781 30.4716 0.47161 26.9909 0.477575L20.8101 0.48851L14.3769 4.44816ZM53.1451 0.639122C52.847 1.11581 44.3981 22.9632 44.3981 23.2577C44.3981 23.5184 45.0268 23.5739 47.3606 23.5187L50.3232 23.4486L51.084 21.3361L51.8449 19.2235H56.8668H61.8889L62.5408 21.093C62.8995 22.1214 63.2847 23.0999 63.397 23.2677C63.6238 23.6069 69.2542 23.7173 69.46 23.3865C69.5239 23.2838 67.5692 18.1113 65.1165 11.8918L60.657 0.58345L56.9614 0.514855C54.9288 0.477078 53.2115 0.532998 53.1451 0.639122ZM70.4886 0.794953C70.4129 0.98881 70.3867 4.82295 70.43 9.31545C70.5065 17.2305 70.5272 17.523 71.0913 18.7511C72.2745 21.3261 74.9128 23.0927 78.5408 23.7391C83.4489 24.6137 88.7356 23.1337 90.8177 20.3022C92.2295 18.3822 92.3311 17.5966 92.3311 8.60763V0.44278L89.493 0.513115L86.6549 0.58345L86.5282 8.28801C86.4462 13.2731 86.2999 16.2118 86.1135 16.6139C85.4351 18.0775 83.8402 18.8517 81.5086 18.8492C79.4987 18.8472 78.4343 18.4876 77.4356 17.4728L76.5637 16.5871L76.4376 8.58526L76.3114 0.58345L73.4685 0.513115C71.1997 0.456946 70.5981 0.513861 70.4886 0.794953ZM95.2772 0.622222C95.1831 0.714676 95.1062 1.83134 95.1062 3.10359V5.4167L98.8273 5.48529L102.548 5.55413L102.615 14.5717L102.681 23.589L105.516 23.5189L108.351 23.4486L108.417 14.4392L108.483 5.42987H112.274H116.064L115.991 3.00666L115.919 0.58345L105.684 0.518583C100.054 0.482794 95.3711 0.529518 95.2772 0.622222ZM145.814 12.0483V23.6372L152.815 23.4966C156.666 23.4193 160.342 23.2306 160.987 23.0773C163.87 22.3908 165.859 20.4575 166.638 17.5834C167.628 13.933 167.317 7.54887 166.014 4.78144C164.352 1.25052 161.677 0.471858 151.175 0.463408L145.814 0.459183V12.0483ZM170.654 0.76662C170.587 0.939351 170.562 6.11334 170.598 12.2646L170.664 23.4486H179.872H189.08L189.152 21.0296L189.224 18.6106L182.845 18.5443L176.466 18.4779L176.393 16.4275L176.32 14.3771H181.502H186.683V11.897V9.4166L181.575 9.3495L176.466 9.28215V7.41814V5.55413L182.845 5.48778L189.224 5.42142L189.152 3.00243L189.08 0.58345L179.928 0.518086C172.742 0.466888 170.75 0.520323 170.654 0.76662ZM216.82 0.769851C216.754 0.940843 216.729 6.11334 216.765 12.2646L216.831 23.4486H219.606H222.381L222.507 19.135L222.633 14.8212L226.664 19.1972L230.695 23.5729H233.896C235.657 23.5729 237.283 23.503 237.509 23.4175C237.833 23.295 237.532 22.8603 236.091 21.3671C235.085 20.3248 233.459 18.6332 232.479 17.608C231.498 16.5828 229.916 14.9368 228.964 13.9504L227.233 12.1564L229.979 9.22822C231.489 7.61747 233.358 5.62869 234.132 4.80853C237.353 1.39566 237.883 0.777804 237.725 0.62247C237.634 0.532749 236.116 0.459183 234.352 0.459183H231.143L230.186 1.51545C229.659 2.09653 228.357 3.52237 227.293 4.68426C226.228 5.84616 224.801 7.43082 224.121 8.2055C223.441 8.98043 222.8 9.62338 222.696 9.63457C222.592 9.64575 222.507 7.5859 222.507 5.05707V0.459183H219.724C217.73 0.459183 216.907 0.547413 216.82 0.769851ZM132.51 5.57253C134.855 6.35963 136.48 8.99733 136.48 12.016C136.48 14.7986 135.244 17.0513 133.098 18.1812C132.244 18.631 131.65 18.7252 129.668 18.7257C127.503 18.7264 127.157 18.6601 126.082 18.0375C124.502 17.1224 123.715 16.049 123.216 14.1286C122.229 10.3337 123.827 6.62706 126.928 5.52158C128.15 5.0859 131.141 5.11299 132.51 5.57253ZM58.5235 9.87639C59.3573 12.2332 60.0394 14.2103 60.0394 14.2695C60.0394 14.3286 58.6204 14.3771 56.8859 14.3771C55.1515 14.3771 53.7325 14.2971 53.7325 14.1994C53.7325 13.9094 56.8569 5.44254 56.9354 5.51984C56.975 5.55886 57.6894 7.51929 58.5235 9.87639ZM159.382 6.08674C160.741 7.06448 161.077 8.19232 161.077 11.7675C161.077 14.7178 161.022 15.106 160.446 16.2369C159.461 18.1717 158.713 18.4737 154.896 18.4759L151.743 18.4779L151.675 12.269C151.638 8.85417 151.668 5.90382 151.743 5.7127C151.853 5.43086 152.522 5.38687 155.287 5.47933C158.174 5.57576 158.802 5.66871 159.382 6.08674Z" fill="#2B2B2B"/>
</svg>
