<svg width="270" height="40" viewBox="0 0 270 40" fill="none" xmlns="http://www.w3.org/2000/svg">
<g opacity="0.8">
<path fill-rule="evenodd" clip-rule="evenodd" d="M26.8339 26.6666L13.417 13.3334L26.8339 0L13.417 0L0 13.3334L6.70843 20.0749L20.1254 33.2585L26.8339 26.6666Z" fill="#2B2B2B"/>
<path fill-rule="evenodd" clip-rule="evenodd" d="M36.3748 20.0749L29.6664 13.3334L22.9578 6.74154L16.3985 13.3334L29.6664 26.6666L16.2494 40H29.6664L36.3748 33.4083L43.0833 26.6666L36.3748 20.0749Z" fill="#2B2B2B"/>
<path fill-rule="evenodd" clip-rule="evenodd" d="M59.4584 13.3114C57.5241 13.3114 55.8874 13.9137 54.6971 15.2691C53.5066 16.6245 52.9116 18.4315 52.9116 20.8411C52.9116 23.2505 53.5066 25.0577 54.5483 26.4129C55.7386 27.7683 57.2265 28.3708 59.3096 28.3708C60.6487 28.3708 61.9879 28.0695 63.6246 27.6177V29.5754C62.2855 30.0272 60.7976 30.3285 59.012 30.3285C56.3338 30.3285 54.2507 29.5754 52.7628 27.9189C51.2748 26.2625 50.5308 23.8529 50.5308 20.8411C50.5308 18.8832 50.8284 17.2268 51.5725 15.8714C52.3163 14.5162 53.358 13.3114 54.5483 12.5583C55.7386 11.8054 57.3753 11.3537 59.3096 11.3537C61.244 11.3537 62.8807 11.6548 64.3686 12.4078L63.4758 14.2149C62.2855 13.7631 60.9464 13.3114 59.4584 13.3114Z" fill="#2B2B2B"/>
<path fill-rule="evenodd" clip-rule="evenodd" d="M78.0575 25.2083C78.0575 26.8648 77.4624 28.0695 76.2719 28.9731C75.0816 29.8766 73.5937 30.3285 71.5106 30.3285C69.2788 30.3285 67.6421 30.0272 66.4516 29.4249V27.3166C67.1956 27.6177 68.0883 27.9189 68.8324 28.0695C69.5762 28.2202 70.6179 28.3708 71.5106 28.3708C72.9985 28.3708 74.0401 28.0695 74.6352 27.6177C75.3792 27.0154 75.6769 26.2625 75.6769 25.3588C75.6769 24.7565 75.5281 24.1542 75.2304 23.8529C74.9328 23.4011 74.4864 23.1 73.8913 22.6482C73.2961 22.3469 72.4034 21.8952 71.213 21.4434C69.5762 20.8411 68.2371 20.088 67.6421 19.1845C66.898 18.2809 66.6004 17.2268 66.6004 15.8714C66.6004 14.5162 67.1956 13.3114 68.2371 12.4078C69.2788 11.5042 70.7667 11.2031 72.4034 11.2031C74.1889 11.2031 75.8257 11.5042 77.4624 12.2572L76.8672 14.0643C75.3792 13.462 73.8913 13.1608 72.4034 13.1608C71.213 13.1608 70.4691 13.462 69.725 13.9137C69.13 14.3655 68.8324 15.1185 68.8324 16.022C68.8324 16.6245 68.9812 17.2268 69.13 17.528C69.4276 17.9797 69.725 18.2809 70.3203 18.5822C70.9155 18.8832 71.6594 19.3351 72.8497 19.7869C74.784 20.5398 76.1231 21.2928 76.8672 22.0458C77.7598 22.9494 78.0575 24.0035 78.0575 25.2083Z" fill="#2B2B2B"/>
<path fill-rule="evenodd" clip-rule="evenodd" d="M92.1927 25.2083C92.1927 26.8648 91.5976 28.0695 90.4073 28.9731C89.2169 29.8766 87.729 30.3285 85.6458 30.3285C83.414 30.3285 81.7773 30.0272 80.587 29.4249V27.3166C81.3309 27.6177 82.2237 27.9189 82.9676 28.0695C83.7117 28.2202 84.7532 28.3708 85.6458 28.3708C87.1339 28.3708 88.1754 28.0695 88.7706 27.6177C89.5145 27.0154 89.8121 26.2625 89.8121 25.3588C89.8121 24.7565 89.6633 24.1542 89.3657 23.8529C89.0681 23.4011 88.6218 23.1 88.0266 22.6482C87.4314 22.3469 86.5387 21.8952 85.3484 21.4434C83.7117 20.8411 82.3724 20.088 81.7773 19.1845C81.0333 18.2809 80.7358 17.2268 80.7358 15.8714C80.7358 14.5162 81.3309 13.3114 82.3724 12.4078C83.414 11.5042 84.902 11.2031 86.5387 11.2031C88.3242 11.2031 89.9609 11.5042 91.5976 12.2572L91.0024 14.0643C89.5145 13.462 88.0266 13.1608 86.5387 13.1608C85.3484 13.1608 84.6043 13.462 83.8605 13.9137C83.2652 14.3655 82.9676 15.1185 82.9676 16.022C82.9676 16.6245 83.1164 17.2268 83.2652 17.528C83.5629 17.9797 83.8605 18.2809 84.4555 18.5822C85.0508 18.8832 85.7946 19.3351 86.9851 19.7869C88.9193 20.5398 90.2585 21.2928 91.0024 22.0458C91.7465 22.9494 92.1927 24.0035 92.1927 25.2083Z" fill="#2B2B2B"/>
<path d="M110.792 20.5398C110.792 23.5517 109.899 25.9612 108.262 27.6177C106.626 29.2743 104.245 30.1778 101.12 30.1778L95.1687 30.1778V11.6548H101.418C104.394 11.6548 106.626 12.4078 108.262 13.9137C109.899 15.4197 110.792 17.6786 110.792 20.5398ZM105.733 20.6905C105.733 19.0338 105.435 17.6786 104.691 16.9255C104.096 16.1726 103.055 15.7208 101.716 15.7208H100.228V26.1118H101.269C102.757 26.1118 103.799 25.66 104.543 24.7565C105.435 23.8529 105.733 22.4975 105.733 20.6905Z" fill="#2B2B2B"/>
<path d="M120.612 30.4791C118.231 30.4791 116.446 29.8766 115.107 28.5212C113.768 27.3166 113.172 25.5094 113.172 23.1C113.172 20.6905 113.768 18.8832 114.958 17.528C116.148 16.1726 117.934 15.5703 120.166 15.5703C122.249 15.5703 123.886 16.1726 125.076 17.2268C126.266 18.2809 126.861 19.9375 126.861 22.0458V24.3046H118.083C118.083 25.0577 118.38 25.66 118.975 26.2625C119.571 26.7142 120.315 27.0154 121.207 27.0154C122.1 27.0154 122.844 26.8648 123.588 26.7142C124.332 26.5635 125.076 26.2625 125.969 25.8106V29.4249C125.225 29.8766 124.481 30.0272 123.588 30.1778C122.695 30.3285 121.803 30.4791 120.612 30.4791ZM120.315 19.0338C119.719 19.0338 119.273 19.1845 118.827 19.6363C118.38 19.9374 118.231 20.5398 118.083 21.2928H122.249C122.249 20.5398 122.1 20.088 121.654 19.6363C121.505 19.1845 121.058 19.0338 120.315 19.0338Z" fill="#2B2B2B"/>
<path fill-rule="evenodd" clip-rule="evenodd" d="M140.55 25.8106C140.55 27.3166 140.104 28.5212 139.062 29.2743C138.021 30.0272 136.533 30.4791 134.599 30.4791C133.557 30.4791 132.664 30.4791 131.92 30.3285C131.176 30.1778 130.284 30.0272 129.54 29.726V25.8106C130.284 26.1118 131.176 26.4129 132.069 26.7142C132.962 26.8648 133.706 27.0154 134.45 27.0154C135.492 27.0154 136.087 26.7142 136.087 26.2625C136.087 25.9612 135.938 25.8106 135.64 25.66C135.343 25.5094 134.45 25.0577 133.111 24.4552C131.772 23.8529 130.879 23.2505 130.433 22.6482C129.986 21.8952 129.689 21.1422 129.689 20.088C129.689 18.7328 130.135 17.6786 131.176 16.9255C132.218 16.1726 133.557 15.8714 135.492 15.8714C136.384 15.8714 137.277 16.022 138.17 16.1726C139.062 16.3232 139.806 16.6245 140.699 17.0762L139.36 20.2386C138.765 19.9374 138.021 19.6363 137.277 19.4857C136.533 19.3351 135.938 19.1845 135.492 19.1845C134.747 19.1845 134.301 19.3351 134.301 19.7869C134.301 20.088 134.45 20.2386 134.747 20.3892C135.045 20.5398 135.789 20.8411 137.128 21.4434C138.17 21.8952 138.914 22.1963 139.36 22.6482C139.806 23.1 140.253 23.5517 140.402 24.0035C140.402 24.3046 140.55 25.0577 140.55 25.8106Z" fill="#2B2B2B"/>
<path d="M143.229 12.2572C143.229 11.5042 143.378 10.9018 143.824 10.6006C144.271 10.2995 144.866 9.99831 145.759 9.99831C146.651 9.99831 147.395 10.1489 147.693 10.6006C148.139 10.9018 148.288 11.5042 148.288 12.2572C148.288 13.7631 147.395 14.3655 145.61 14.3655C143.973 14.5162 143.229 13.7631 143.229 12.2572ZM148.139 30.1778H143.229V15.8714L148.139 15.8714V30.1778Z" fill="#2B2B2B"/>
<path d="M164.953 15.8714V18.2809L163.019 19.0338C163.316 19.4857 163.465 20.088 163.465 20.6905C163.465 22.1963 162.87 23.4011 161.828 24.3046C160.787 25.2083 159.15 25.5094 157.066 25.5094C156.471 25.5094 156.174 25.5094 155.876 25.3588C155.727 25.5094 155.727 25.8106 155.727 25.9612C155.727 26.2625 155.876 26.4129 156.322 26.5635C156.769 26.7142 157.215 26.7142 157.81 26.7142L160.191 26.7142C163.316 26.7142 164.953 28.0695 164.953 30.7802C164.953 32.5874 164.209 33.9426 162.721 34.8462C161.233 35.7499 159.15 36.3522 156.471 36.3522C154.537 36.3522 152.9 36.0509 151.858 35.298C150.816 34.6957 150.221 33.6415 150.221 32.4368C150.221 30.7802 151.263 29.5754 153.346 29.1237C152.9 28.9731 152.602 28.6718 152.156 28.2202C151.858 27.7683 151.709 27.4671 151.709 27.0154C151.709 26.5635 151.858 26.1118 152.007 25.8106C152.305 25.5094 152.751 25.0577 153.495 24.6058C152.751 24.3046 152.156 23.7023 151.709 23.1C151.263 22.3469 151.114 21.594 151.114 20.5398C151.114 19.0338 151.709 17.8291 152.751 16.9255C153.793 16.022 155.281 15.5703 157.215 15.5703C157.513 15.5703 157.959 15.5703 158.554 15.7208C159.15 15.7208 159.596 15.8714 159.894 15.8714H164.953ZM154.239 31.9849C154.239 32.4368 154.388 32.7378 154.834 33.0391C155.281 33.3403 155.876 33.3403 156.62 33.3403C157.81 33.3403 158.703 33.1897 159.447 32.8885C160.191 32.5874 160.489 32.1355 160.489 31.6837C160.489 31.232 160.34 31.0814 159.894 30.9308C159.447 30.7802 158.852 30.6295 157.959 30.6295H156.025C155.429 30.6295 155.132 30.7802 154.685 30.9308C154.388 31.232 154.239 31.5332 154.239 31.9849ZM155.727 20.5398C155.727 22.0458 156.174 22.7988 157.215 22.7988C157.662 22.7988 158.108 22.6482 158.257 22.1963C158.554 21.8952 158.703 21.2928 158.703 20.5398C158.703 19.0338 158.257 18.2809 157.215 18.2809C156.322 18.2809 155.727 19.0338 155.727 20.5398Z" fill="#2B2B2B"/>
<path fill-rule="evenodd" clip-rule="evenodd" d="M175.963 22.3469C175.963 21.4434 175.814 20.6905 175.517 20.2386C175.219 19.7869 174.773 19.4857 174.178 19.4857C173.285 19.4857 172.69 19.7869 172.392 20.5398C172.094 21.1422 171.797 22.3469 171.797 24.0035V30.3285H166.886V16.022H170.606L171.201 17.8291H171.499C171.946 17.2268 172.541 16.6245 173.285 16.3232C174.029 16.022 174.922 15.8714 175.814 15.8714C177.451 15.8714 178.642 16.3232 179.535 17.2268C180.427 18.1303 180.874 19.4857 180.874 21.1422V30.4791H175.963V22.3469Z" fill="#2B2B2B"/>
<path d="M196.497 30.1778L194.265 24.3046H186.973L184.741 30.1778H182.658L189.95 11.6548H191.735L198.876 30.1778H196.497ZM193.521 22.3469L191.438 16.6245C191.14 15.8714 190.842 14.9678 190.545 13.9137C190.396 14.6666 190.098 15.5703 189.801 16.6245L187.717 22.3469H193.521Z" fill="#2B2B2B"/>
<path fill-rule="evenodd" clip-rule="evenodd" d="M212.12 30.1778L209.591 22.0458C209.442 21.594 209.144 20.3892 208.698 18.7328H208.549C208.251 20.2386 207.954 21.2928 207.656 22.1963L205.126 30.3285H202.745L199.025 16.4738H201.257C202.15 19.9374 202.745 22.6482 203.341 24.4552C203.787 26.2625 204.085 27.4671 204.085 28.0695H204.234C204.382 27.6177 204.531 27.0154 204.68 26.2625C204.829 25.5094 205.126 24.9071 205.275 24.4552L207.805 16.4738H210.037L212.418 24.4552C212.864 25.9612 213.162 27.166 213.311 28.0695H213.46C213.46 27.7683 213.608 27.3166 213.756 26.7142C213.904 26.1118 214.797 22.6482 216.285 16.4738H218.369L214.648 30.3285H212.12V30.1778Z" fill="#2B2B2B"/>
<path d="M229.232 30.1778L228.785 28.2202H228.636C227.892 29.1237 227.297 29.726 226.553 30.0272C225.809 30.3285 225.065 30.4791 224.023 30.4791C222.684 30.4791 221.642 30.1778 220.898 29.4249C220.154 28.6718 219.708 27.7683 219.708 26.4129C219.708 23.5517 221.94 22.1963 226.404 22.0458L228.785 21.8952V20.9917C228.785 19.9374 228.488 19.0338 228.041 18.5822C227.595 18.1303 226.851 17.8291 225.809 17.8291C224.619 17.8291 223.428 18.1303 221.94 18.8832L221.345 17.2268C222.089 16.9255 222.684 16.6245 223.577 16.3232C224.321 16.1726 225.214 16.022 225.958 16.022C227.595 16.022 228.785 16.3232 229.528 17.0762C230.272 17.8291 230.718 19.0338 230.718 20.5398V30.0272H229.232V30.1778ZM224.47 28.6718C225.809 28.6718 226.702 28.3708 227.446 27.6177C228.19 26.8648 228.488 25.9612 228.488 24.6058V23.4011L226.404 23.5517C224.767 23.5517 223.577 23.8529 222.833 24.3046C222.089 24.7565 221.791 25.5094 221.791 26.4129C221.791 27.166 222.089 27.7683 222.535 28.0695C223.13 28.5212 223.726 28.6718 224.47 28.6718Z" fill="#2B2B2B"/>
<path fill-rule="evenodd" clip-rule="evenodd" d="M241.283 16.022C241.879 16.022 242.474 16.022 242.92 16.1726L242.623 18.1303C242.027 17.9797 241.581 17.9797 241.135 17.9797C240.093 17.9797 239.051 18.4315 238.307 19.3351C237.563 20.2386 237.117 21.4434 237.117 22.7988V30.1778H235.033V16.3232H236.67L236.968 18.8832H237.117C237.563 17.9797 238.307 17.2268 238.902 16.7749C239.646 16.3232 240.391 16.022 241.283 16.022Z" fill="#2B2B2B"/>
<path d="M254.823 28.3708C253.782 29.726 252.294 30.4791 250.359 30.4791C248.573 30.4791 247.234 29.8766 246.192 28.6718C245.152 27.4671 244.706 25.66 244.706 23.4011C244.706 21.1422 245.152 19.3351 246.192 18.1303C247.234 16.9255 248.573 16.1726 250.359 16.1726C252.145 16.1726 253.633 16.9255 254.674 18.2809H254.823L254.674 17.2268V10.45H256.758V30.1778H255.121L254.823 28.3708ZM250.657 28.6718C252.145 28.6718 253.038 28.2202 253.782 27.4671C254.377 26.7142 254.674 25.3588 254.674 23.7023V23.2505C254.674 21.2928 254.377 19.9375 253.633 19.0338C253.038 18.1303 251.996 17.8291 250.508 17.8291C249.317 17.8291 248.425 18.2809 247.681 19.3351C247.085 20.2386 246.639 21.594 246.639 23.4011C246.639 25.2083 246.936 26.5635 247.532 27.4671C248.425 28.2202 249.317 28.6718 250.657 28.6718Z" fill="#2B2B2B"/>
<path fill-rule="evenodd" clip-rule="evenodd" d="M270 26.4129C270 27.7683 269.554 28.6718 268.512 29.4249C267.619 30.1778 266.28 30.4791 264.494 30.4791C262.708 30.4791 261.222 30.1778 260.18 29.5754V27.6177C260.776 27.9189 261.52 28.2202 262.262 28.3708C263.006 28.5212 263.75 28.6718 264.494 28.6718C265.536 28.6718 266.429 28.5212 267.024 28.2202C267.619 27.9189 267.917 27.3166 267.917 26.5635C267.917 25.9612 267.619 25.5094 267.173 25.2083C266.726 24.7565 265.833 24.3046 264.494 23.8529C263.155 23.4011 262.262 22.9494 261.816 22.6482C261.222 22.3469 260.924 21.8952 260.627 21.4434C260.329 20.9917 260.18 20.3892 260.18 19.7869C260.18 18.7328 260.627 17.8291 261.52 17.0762C262.411 16.3232 263.601 16.022 265.238 16.022C266.726 16.022 268.214 16.3232 269.554 16.9255L268.81 18.5822C267.47 17.9797 266.131 17.6786 265.089 17.6786C264.048 17.6786 263.304 17.8291 262.857 18.1303C262.411 18.4315 262.113 18.8832 262.113 19.4857C262.113 19.7869 262.262 20.2386 262.411 20.3892C262.56 20.6905 262.857 20.8411 263.304 21.1422C263.75 21.4434 264.494 21.7446 265.685 22.1963C267.321 22.7988 268.363 23.4011 268.958 24.0035C269.702 24.7565 270 25.5094 270 26.4129Z" fill="#2B2B2B"/>
</g>
</svg>
