<svg width="100" height="100" viewBox="0 0 100 100" fill="none" xmlns="http://www.w3.org/2000/svg">
<path d="M50 0C43.434 0 36.932 1.29343 30.8657 3.806C24.7994 6.31886 19.2877 10.0017 14.6446 14.6446C10.0017 19.2877 6.31886 24.7994 3.806 30.8657C1.29343 36.932 0 43.434 0 50C0 56.566 1.29343 63.068 3.806 69.1343C6.31886 75.2006 10.0017 80.7123 14.6446 85.3554C19.2877 89.9983 24.7994 93.6811 30.8657 96.194C36.932 98.7066 43.434 100 50 100V75C46.7169 75 43.466 74.3534 40.4329 73.0969C37.3997 71.8406 34.6437 69.9991 32.3223 67.6777C30.0009 65.3563 28.1594 62.6003 26.9031 59.5671C25.6466 56.534 25 53.2831 25 50C25 46.7169 25.6466 43.466 26.9031 40.4329C28.1594 37.3997 30.0009 34.6437 32.3223 32.3223C34.6437 30.0009 37.3997 28.1594 40.4329 26.9031C43.466 25.6466 46.7169 25 50 25V0Z" fill="white"/>
<path opacity="0.6" d="M0 49.9988C0 56.5648 1.29343 63.0668 3.806 69.1331C6.31886 75.1994 10.0017 80.7111 14.6446 85.3542C19.2877 89.9971 24.7994 93.6799 30.8657 96.1928C36.932 98.7054 43.434 99.9988 50 99.9988C56.566 99.9988 63.068 98.7054 69.1343 96.1928C75.2006 93.6799 80.7123 89.9971 85.3554 85.3542C89.9983 80.7111 93.6811 75.1994 96.194 69.1331C98.7066 63.0668 100 56.5648 100 49.9988H75C75 53.2819 74.3534 56.5328 73.0969 59.5659C71.8406 62.5991 69.9991 65.3551 67.6777 67.6765C65.3563 69.9979 62.6003 71.8394 59.5671 73.0956C56.534 74.3522 53.2831 74.9988 50 74.9988C46.7169 74.9988 43.466 74.3522 40.4329 73.0956C37.3997 71.8394 34.6437 69.9979 32.3223 67.6765C30.0009 65.3551 28.1594 62.5991 26.9031 59.5659C25.6466 56.5328 25 53.2819 25 49.9988H0Z" fill="white"/>
<path opacity="0.6" d="M66.6684 49.9994C66.6684 45.5791 64.9124 41.3399 61.787 38.2142C58.6612 35.0885 54.4221 33.3325 50.0018 33.3325C45.5815 33.3325 41.3424 35.0885 38.2167 38.2142C35.091 41.3399 33.335 45.5791 33.335 49.9994H50.0018H66.6684Z" fill="white"/>
<path d="M66.6715 49.9969C66.6715 45.5767 64.9155 41.3375 61.79 38.2118C58.6643 35.0861 54.4252 33.3301 50.0049 33.3301V49.9969H66.6715Z" fill="white"/>
</svg>
