<svg width="66" height="49" viewBox="0 0 66 49" fill="none" xmlns="http://www.w3.org/2000/svg">
<path d="M15 23C15 21.8954 15.8954 21 17 21L58 21C62.4183 21 66 24.5817 66 29L66 41C66 45.4183 62.4183 49 58 49L23 49C18.5817 49 15 45.4183 15 41L15 23Z" fill="#FF5557"/>
<path d="M31.4238 36.296L27.5038 29.432L29.2638 29.432L31.8398 34.056C31.9998 34.328 32.0958 34.552 32.2238 34.824C32.3678 34.536 32.3998 34.44 32.6078 34.056L35.1678 29.432L36.8798 29.432L32.9918 36.296L32.9918 41L31.4238 41L31.4238 36.296ZM36.0448 37.08C36.0448 34.664 37.7728 32.968 40.1248 32.968C42.4608 32.968 44.1888 34.664 44.1888 37.08C44.1888 39.496 42.4608 41.192 40.1248 41.192C37.7728 41.192 36.0448 39.496 36.0448 37.08ZM37.5648 37.08C37.5648 38.712 38.6048 39.848 40.1248 39.848C41.6288 39.848 42.6848 38.712 42.6848 37.08C42.6848 35.448 41.6288 34.312 40.1248 34.312C38.6048 34.312 37.5648 35.448 37.5648 37.08ZM51.0741 33.176L52.5621 33.176L52.5621 41L51.2181 41L51.0581 39.816C50.6101 40.632 49.5701 41.192 48.4181 41.192C46.5941 41.192 45.5701 39.96 45.5701 38.04L45.5701 33.176L47.0741 33.176L47.0741 37.544C47.0741 39.224 47.7941 39.864 48.9461 39.864C50.3221 39.864 51.0741 38.984 51.0741 37.304L51.0741 33.176Z" fill="white"/>
<path d="M4.0017 3.66677C4.0017 3.35723 4.08961 3.05381 4.25559 2.7905C4.42156 2.52719 4.65904 2.3144 4.94141 2.17597C5.22378 2.03754 5.53988 1.97894 5.85431 2.00674C6.16873 2.03453 6.46905 2.14763 6.72161 2.33335L20.3178 12.334C21.6233 13.2974 20.9297 15.3342 19.2978 15.3342L12.5881 15.3342C12.3274 15.3344 12.0702 15.3935 11.8364 15.5068C11.6026 15.62 11.3986 15.7846 11.2401 15.9875L7.048 21.3445C6.06033 22.608 4 21.9229 4 20.3295L4.0017 3.66677Z" fill="#FF5557"/>
<path d="M4.0017 3.66677C4.0017 3.35723 4.08961 3.05381 4.25559 2.7905C4.42156 2.52719 4.65904 2.3144 4.94141 2.17597C5.22378 2.03754 5.53988 1.97894 5.85431 2.00674C6.16873 2.03453 6.46905 2.14763 6.72161 2.33335L20.3178 12.334C21.6233 13.2974 20.9297 15.3342 19.2978 15.3342L12.5881 15.3342C12.3274 15.3344 12.0702 15.3935 11.8364 15.5068C11.6026 15.62 11.3986 15.7846 11.2401 15.9875L7.048 21.3445C6.06033 22.608 4 21.9229 4 20.3295L4.0017 3.66677ZM19.2961 13.6674L5.70164 3.66844L5.70164 20.3311L9.89201 14.9758C10.2093 14.5696 10.6176 14.2405 11.0854 14.0139C11.5533 13.7873 12.068 13.6693 12.5898 13.6691L19.2961 13.6674Z" fill="white"/>
</svg>
