<svg width="108" height="28" viewBox="0 0 108 28" fill="none" xmlns="http://www.w3.org/2000/svg">
<path d="M0 6C0 2.68629 2.68629 0 6 0H100C104.418 0 108 3.58172 108 8V20C108 24.4183 104.418 28 100 28H8C3.58172 28 0 24.4183 0 20V6Z" fill="#FF5557"/>
<path d="M13.3421 15.888V8.432H14.9101V15.792C14.9101 17.648 15.9341 18.672 17.7741 18.672C19.5981 18.672 20.6061 17.632 20.6061 15.792V8.432H22.1901V15.888C22.1901 18.544 20.4941 20.192 17.7741 20.192C15.0381 20.192 13.3421 18.56 13.3421 15.888ZM25.2771 10.32C24.7331 10.32 24.2851 9.872 24.2851 9.328C24.2851 8.768 24.7331 8.336 25.2771 8.336C25.8211 8.336 26.2691 8.768 26.2691 9.328C26.2691 9.872 25.8211 10.32 25.2771 10.32ZM24.5411 20V12.176H26.0451V20H24.5411ZM36.6836 20H32.8596V8.432H36.6196C40.0756 8.432 42.4116 10.768 42.4116 14.224C42.4116 17.664 40.1076 20 36.6836 20ZM36.5076 9.872H34.4276V18.544H36.5716C39.1476 18.544 40.7796 16.88 40.7796 14.224C40.7796 11.536 39.1476 9.872 36.5076 9.872ZM47.5265 20.192C45.2225 20.192 43.6385 18.528 43.6385 16.096C43.6385 13.648 45.1905 11.952 47.4625 11.952C49.6865 11.952 51.1425 13.488 51.1425 15.808V16.368L45.0945 16.384C45.2065 18.032 46.0705 18.944 47.5585 18.944C48.7265 18.944 49.4945 18.464 49.7505 17.568H51.1585C50.7745 19.248 49.4625 20.192 47.5265 20.192ZM47.4625 13.216C46.1505 13.216 45.3185 14 45.1265 15.376H49.6385C49.6385 14.08 48.7905 13.216 47.4625 13.216ZM52.1824 17.728H53.6224C53.6224 18.528 54.2304 19.008 55.2224 19.008C56.2784 19.008 56.8864 18.576 56.8864 17.856C56.8864 17.328 56.6304 17.008 55.8144 16.8L54.4384 16.48C53.0464 16.144 52.3904 15.456 52.3904 14.304C52.3904 12.864 53.6064 11.952 55.3344 11.952C57.0464 11.952 58.1664 12.912 58.1984 14.4H56.7584C56.7264 13.616 56.1984 13.12 55.2864 13.12C54.3424 13.12 53.8144 13.536 53.8144 14.256C53.8144 14.784 54.1984 15.136 54.9664 15.328L56.3424 15.664C57.6704 15.984 58.3264 16.592 58.3264 17.76C58.3264 19.248 57.0464 20.192 55.1904 20.192C53.3504 20.192 52.1824 19.216 52.1824 17.728ZM60.7303 10.32C60.1863 10.32 59.7383 9.872 59.7383 9.328C59.7383 8.768 60.1863 8.336 60.7303 8.336C61.2743 8.336 61.7223 8.768 61.7223 9.328C61.7223 9.872 61.2743 10.32 60.7303 10.32ZM59.9943 20V12.176H61.4983V20H59.9943ZM63.1858 15.888C63.1858 13.68 64.6098 11.952 66.8818 11.952C68.1458 11.952 69.1218 12.528 69.6178 13.504L69.7298 12.176H71.0738V19.68C71.0738 22.144 69.5538 23.712 67.1538 23.712C65.0258 23.712 63.5698 22.512 63.2818 20.528H64.7858C64.9778 21.68 65.8418 22.352 67.1538 22.352C68.6258 22.352 69.5858 21.392 69.5858 19.904V18.336C69.0738 19.248 68.0498 19.792 66.8177 19.792C64.5938 19.792 63.1858 18.08 63.1858 15.888ZM64.6898 15.856C64.6898 17.328 65.6018 18.48 67.0738 18.48C68.5938 18.48 69.5218 17.392 69.5218 15.856C69.5218 14.352 68.6258 13.264 67.0898 13.264C65.5858 13.264 64.6898 14.416 64.6898 15.856ZM74.7483 20H73.2443V12.176H74.6043L74.7643 13.376C75.2603 12.48 76.2523 11.952 77.3563 11.952C79.4203 11.952 80.3643 13.216 80.3643 15.216V20H78.8603V15.552C78.8603 13.968 78.1243 13.328 76.9723 13.328C75.5643 13.328 74.7483 14.336 74.7483 15.856V20ZM85.8234 20.192C83.5194 20.192 81.9354 18.528 81.9354 16.096C81.9354 13.648 83.4874 11.952 85.7594 11.952C87.9834 11.952 89.4394 13.488 89.4394 15.808V16.368L83.3914 16.384C83.5034 18.032 84.3674 18.944 85.8554 18.944C87.0234 18.944 87.7914 18.464 88.0474 17.568H89.4554C89.0714 19.248 87.7594 20.192 85.8234 20.192ZM85.7594 13.216C84.4474 13.216 83.6154 14 83.4234 15.376H87.9354C87.9354 14.08 87.0874 13.216 85.7594 13.216ZM95.5993 12.112V13.488H94.9273C93.5033 13.488 92.6233 14.352 92.6233 15.856V20H91.1193V12.192H92.5273L92.6233 13.376C92.9433 12.56 93.7273 12.016 94.7993 12.016C95.0713 12.016 95.2953 12.048 95.5993 12.112Z" fill="white"/>
</svg>
