<svg width="40" height="40" viewBox="0 0 40 40" fill="none" xmlns="http://www.w3.org/2000/svg">
<g id="logo 1" clip-path="url(#clip0_16680_419)">
<g id="Group 2085664361">
<path id="Vector" d="M22.4886 2.42307C22.5076 2.28699 22.4132 2.1592 22.2768 2.14218C22.2743 2.14186 22.2717 2.14154 22.2692 2.14122C22.132 2.12416 22.008 2.22529 21.9931 2.36266C21.9785 2.49726 22.0755 2.6198 22.2098 2.63658C22.3449 2.65343 22.4698 2.55783 22.4886 2.42307ZM24.4456 2.81275C24.48 2.67893 24.3997 2.5407 24.2654 2.5081C24.2637 2.50768 24.2619 2.50725 24.2601 2.50682C24.1257 2.4742 23.9908 2.56058 23.9606 2.69562C23.9309 2.82805 24.0137 2.96101 24.1456 2.99304C24.2775 3.0251 24.4118 2.94427 24.4456 2.81275ZM26.3471 3.41849C26.396 3.28977 26.3322 3.14394 26.2029 3.0964C26.2006 3.09556 26.1983 3.09472 26.1961 3.09388C26.0662 3.04617 25.9228 3.11771 25.8777 3.24854C25.8336 3.37646 25.9003 3.51771 26.0273 3.56426C26.1554 3.61115 26.2986 3.54592 26.3471 3.41849ZM28.1674 4.23637C28.2301 4.11392 28.1828 3.96215 28.0599 3.90044C28.0581 3.89954 28.0563 3.89864 28.0545 3.89773C27.931 3.83579 27.7805 3.88949 27.7206 4.01398C27.6617 4.13637 27.7123 4.28468 27.8337 4.34564C27.9555 4.40683 28.1052 4.35776 28.1674 4.23637ZM29.884 5.25454C29.9606 5.13936 29.9287 4.98245 29.8127 4.90697C29.6958 4.83084 29.538 4.86607 29.4642 4.98451C29.3925 5.09979 29.4258 5.25172 29.5395 5.32588C29.6542 5.40066 29.8081 5.36853 29.884 5.25454ZM31.4762 6.45742C31.5648 6.3527 31.5537 6.19445 31.4477 6.10734C31.4455 6.10561 31.4434 6.10388 31.4413 6.10214C31.3345 6.01445 31.1754 6.03372 31.0893 6.14183C31.005 6.24766 31.0213 6.40298 31.1258 6.48887C31.2311 6.57535 31.3882 6.56139 31.4762 6.45742ZM32.9216 7.83251C33.0224 7.73806 33.0287 7.57828 32.9326 7.4791C32.9311 7.47759 32.9296 7.47607 32.9282 7.47456C32.8321 7.37551 32.6724 7.3767 32.5749 7.47423C32.479 7.57008 32.4778 7.72681 32.5722 7.82417C32.6665 7.92144 32.8228 7.92514 32.9216 7.83251ZM34.2083 9.35857C34.3179 9.27559 34.3413 9.11847 34.2573 9.00962C34.2559 9.00787 34.2546 9.00613 34.2532 9.00439C34.1689 8.89514 34.0102 8.87831 33.9022 8.96431C33.7959 9.04895 33.7772 9.20477 33.8603 9.3123C33.9436 9.42022 34.0995 9.44085 34.2083 9.35857ZM35.3139 11.0199C35.4325 10.9499 35.4736 10.7959 35.4022 10.6781C35.4009 10.6761 35.3997 10.6741 35.3985 10.6721C35.3269 10.5541 35.171 10.5197 35.0543 10.5935C34.9396 10.666 34.9041 10.8184 34.9744 10.9345C35.0447 11.0507 35.1969 11.089 35.3139 11.0199ZM36.2253 12.7945C36.3518 12.7385 36.4104 12.5896 36.3524 12.4641C36.3516 12.4623 36.3508 12.4606 36.35 12.4589C36.2921 12.3335 36.141 12.2816 36.0166 12.3415C35.8942 12.4005 35.8413 12.548 35.8982 12.6714C35.9549 12.7944 36.1014 12.8495 36.2253 12.7945ZM36.9363 14.6597C37.0672 14.6181 37.1401 14.4785 37.0968 14.3482C37.0959 14.3454 37.095 14.3426 37.0941 14.3399C37.0507 14.2093 36.9064 14.1413 36.7766 14.187C36.6486 14.2319 36.5799 14.373 36.6222 14.5018C36.6646 14.6306 36.8021 14.7024 36.9313 14.6613L36.9363 14.6597ZM37.4251 16.5948C37.5599 16.5681 37.6496 16.4371 37.6216 16.3026C37.6211 16.3002 37.6206 16.2979 37.6201 16.2955C37.5918 16.1605 37.4563 16.0763 37.3218 16.1065C37.1893 16.1363 37.1045 16.2683 37.1324 16.4013C37.1603 16.5345 37.2915 16.6213 37.4251 16.5948ZM37.6955 18.5722C37.8322 18.5609 37.9357 18.4411 37.9229 18.3045C37.9226 18.3023 37.9224 18.3001 37.9222 18.2978C37.9092 18.1601 37.7836 18.0607 37.6461 18.0756C37.5114 18.0902 37.4124 18.2109 37.4253 18.3457C37.4383 18.4818 37.5593 18.5835 37.6955 18.5722ZM37.7415 20.5675C37.8793 20.5709 37.9949 20.46 37.9973 20.3221C37.9998 20.1835 37.8873 20.0684 37.7487 20.0684C37.6128 20.0684 37.5019 20.1786 37.4994 20.3145C37.4969 20.4507 37.6053 20.5641 37.7415 20.5675ZM37.569 22.556C37.7052 22.5749 37.8326 22.4803 37.8504 22.344C37.8506 22.3418 37.8509 22.3397 37.8512 22.3375C37.8689 22.2005 37.7688 22.0762 37.6315 22.0606C37.4966 22.0453 37.3734 22.142 37.3559 22.2766C37.3383 22.412 37.4338 22.5371 37.569 22.556ZM37.1723 24.5113C37.3064 24.5458 37.4445 24.4639 37.4777 24.3295C37.5109 24.1945 37.4258 24.0575 37.2904 24.0263C37.1576 23.9957 37.0239 24.0772 36.9912 24.2095C36.9584 24.3424 37.0396 24.4772 37.1723 24.5113ZM36.5531 26.408C36.6839 26.4586 36.8316 26.3918 36.8812 26.2607C36.9301 26.1313 36.8624 25.9879 36.7319 25.9421C36.6023 25.8965 36.4594 25.9648 36.4107 26.0933C36.3628 26.2195 36.4272 26.3593 36.5531 26.408ZM35.7347 28.2277C35.8569 28.2912 36.0076 28.2439 36.0698 28.1211C36.0711 28.1185 36.0724 28.1159 36.0737 28.1133C36.1356 27.9909 36.0824 27.8412 35.9587 27.7817C35.8363 27.7227 35.6876 27.7743 35.6255 27.8952C35.5639 28.0153 35.6097 28.1628 35.7295 28.225L35.7347 28.2277ZM34.709 29.94C34.823 30.0169 34.9794 29.9881 35.0548 29.8731C35.056 29.8712 35.0573 29.8693 35.0585 29.8674C35.1343 29.7517 35.0981 29.5957 34.9812 29.5219C34.8668 29.4495 34.7141 29.4825 34.6399 29.5957C34.5652 29.7095 34.5961 29.8638 34.709 29.94ZM33.4993 31.5274C33.6043 31.6162 33.7626 31.6043 33.8505 31.4986C33.8518 31.4971 33.853 31.4956 33.8542 31.4941C33.9427 31.3877 33.9245 31.2288 33.8166 31.1421C33.7107 31.0571 33.555 31.0728 33.4682 31.1772C33.3809 31.2823 33.3949 31.4393 33.4993 31.5274ZM32.1209 32.9704C32.2151 33.0705 32.3724 33.0753 32.4711 32.9795C32.4739 32.9767 32.4768 32.974 32.4796 32.9712C32.5764 32.8773 32.5778 32.7214 32.4825 32.626C32.3856 32.5292 32.2263 32.5313 32.1261 32.6248C32.0295 32.7149 32.0227 32.8661 32.1133 32.9623L32.1209 32.9704ZM30.5878 34.2483C30.6701 34.3585 30.8273 34.3833 30.9365 34.2997C30.9386 34.2981 30.9407 34.2964 30.9429 34.2948C31.0526 34.2107 31.0691 34.0514 30.983 33.9433C30.8986 33.8374 30.7434 33.8182 30.6359 33.9006C30.5279 33.9833 30.5064 34.1393 30.5878 34.2483ZM28.9228 35.3486C28.9919 35.4672 29.1449 35.5099 29.2624 35.4389C29.2649 35.4373 29.2674 35.4358 29.27 35.4343C29.3881 35.3628 29.4226 35.2065 29.3495 35.0894C29.2778 34.9745 29.1259 34.9378 29.01 35.0077C28.8933 35.078 28.8541 35.2309 28.9228 35.3486ZM27.1443 36.2538C27.2002 36.3795 27.348 36.4381 27.4731 36.3808C27.4751 36.3799 27.4771 36.379 27.479 36.3781C27.6045 36.3207 27.6569 36.17 27.5978 36.0454C27.5395 35.9226 27.3921 35.8689 27.2685 35.9254C27.1446 35.9821 27.0889 36.1293 27.1443 36.2538ZM25.2781 36.9619C25.3178 37.0903 25.4522 37.1638 25.5797 37.1214C25.5849 37.1197 25.59 37.1179 25.5951 37.1162C25.726 37.0724 25.7949 36.9293 25.7499 36.7988L25.7472 36.791C25.7037 36.6651 25.5665 36.5991 25.4403 36.6416C25.3107 36.6852 25.2354 36.8239 25.2758 36.9544L25.2781 36.9619ZM23.3395 37.4393C23.3653 37.574 23.495 37.6626 23.6293 37.6346C23.6322 37.634 23.6351 37.6334 23.638 37.6328C23.7729 37.6047 23.8577 37.4691 23.8275 37.3346C23.798 37.2026 23.6663 37.1182 23.5338 37.1453C23.4009 37.1725 23.313 37.3007 23.3385 37.4339L23.3395 37.4393ZM21.3608 37.7025C21.3713 37.8389 21.4895 37.9417 21.6257 37.9291C21.6291 37.9288 21.6324 37.9285 21.6358 37.9282C21.7734 37.9154 21.8727 37.7914 21.8578 37.654L21.8573 37.649C21.8427 37.5149 21.7226 37.4181 21.5882 37.4306C21.4525 37.4432 21.35 37.5616 21.3605 37.6975L21.3608 37.7025ZM19.3652 37.738C19.3608 37.8764 19.471 37.9931 19.6094 37.9961C19.7484 37.9991 19.8635 37.8864 19.8643 37.7475C19.8652 37.6111 19.7565 37.4986 19.6202 37.4956C19.4833 37.4926 19.3696 37.6011 19.3652 37.738ZM17.3777 37.5572C17.3579 37.6937 17.452 37.8222 17.5887 37.8403C17.5908 37.8406 17.5929 37.8408 17.595 37.8411C17.7323 37.8593 17.8572 37.7589 17.8728 37.6212C17.8881 37.4866 17.7922 37.3636 17.658 37.3457C17.5229 37.3276 17.3974 37.4224 17.3777 37.5572ZM15.4234 37.1546C15.3883 37.2876 15.4671 37.4253 15.6007 37.4586C15.6024 37.459 15.6041 37.4594 15.6058 37.4599C15.7407 37.4935 15.877 37.4081 15.9082 37.2726C15.9386 37.1409 15.8576 37.0083 15.7264 36.9756C15.5939 36.9426 15.4582 37.0226 15.4234 37.1546ZM13.5271 36.5326C13.4774 36.661 13.5404 36.8069 13.6693 36.8554C13.6711 36.8561 13.673 36.8567 13.6748 36.8574C13.8041 36.906 13.948 36.837 13.9947 36.707C14.0406 36.579 13.9747 36.4367 13.8474 36.3889C13.7197 36.341 13.5763 36.4054 13.5271 36.5326ZM11.7134 35.6999C11.649 35.8218 11.6946 35.9746 11.8173 36.0373C11.8194 36.0383 11.8215 36.0394 11.8235 36.0405C11.9466 36.1033 12.0975 36.0503 12.1583 35.9262C12.2179 35.8043 12.1685 35.6558 12.0477 35.5941C11.9266 35.5322 11.7769 35.5797 11.7134 35.6999ZM10.0044 34.6696C9.92734 34.7836 9.95614 34.94 10.0709 35.016C10.0725 35.0171 10.0742 35.0182 10.0759 35.0193C10.191 35.0955 10.3467 35.0605 10.4213 34.9442C10.4946 34.8298 10.4621 34.6763 10.3488 34.6013C10.2351 34.526 10.0808 34.5566 10.0044 34.6696ZM8.42186 33.4537C8.3324 33.558 8.34295 33.7167 8.44829 33.805C8.45019 33.8066 8.45208 33.8081 8.45397 33.8097C8.55998 33.8985 8.71905 33.8803 8.80579 33.7727C8.89069 33.6672 8.8753 33.5117 8.77153 33.4248C8.66718 33.3374 8.51044 33.3503 8.42186 33.4537ZM6.98453 32.0683C6.88385 32.162 6.87634 32.321 6.97129 32.4206C6.97308 32.4224 6.97487 32.4243 6.97666 32.4262C7.07208 32.5261 7.23214 32.5255 7.33034 32.4283C7.42655 32.3331 7.42892 32.1768 7.3355 32.0789C7.24156 31.9804 7.08417 31.9756 6.98453 32.0683ZM5.71163 30.5313C5.60058 30.6132 5.57524 30.7707 5.6589 30.8805C5.66025 30.8822 5.6616 30.884 5.66295 30.8858C5.74681 30.9957 5.9057 31.0138 6.01435 30.9283C6.12105 30.8444 6.14076 30.6891 6.05861 30.581C5.97641 30.4728 5.82098 30.4506 5.71163 30.5313ZM4.61822 28.8618C4.49898 28.9315 4.45923 29.0865 4.53002 29.2051C4.60094 29.3239 4.75663 29.3624 4.87445 29.2898C4.99026 29.2185 5.02701 29.0665 4.95743 28.9496C4.8877 28.8325 4.73591 28.7931 4.61822 28.8618ZM3.71846 27.0807C3.59285 27.1355 3.53277 27.2825 3.58922 27.4074C3.59055 27.4104 3.59188 27.4133 3.59321 27.4163C3.65004 27.5418 3.80122 27.5938 3.92569 27.5347C4.0478 27.4768 4.10159 27.3299 4.04582 27.2067C3.9898 27.083 3.84292 27.0263 3.71846 27.0807ZM3.02667 25.2087C2.89522 25.2494 2.82019 25.3895 2.86229 25.5205C2.86291 25.5224 2.86353 25.5243 2.86415 25.5263C2.90646 25.6578 3.05 25.7277 3.18088 25.6835C3.30959 25.6399 3.38004 25.5 3.33831 25.3707C3.29643 25.241 3.15691 25.1683 3.02667 25.2087ZM2.54987 23.2706C2.41484 23.2964 2.32405 23.4268 2.3513 23.5616C2.35175 23.5638 2.3522 23.566 2.35265 23.5683C2.38008 23.7037 2.51526 23.789 2.65024 23.7596C2.78281 23.7307 2.86861 23.5998 2.84192 23.4668C2.81507 23.3329 2.68398 23.2449 2.54987 23.2706ZM2.29569 21.2915C2.15853 21.3018 2.05365 21.4212 2.06536 21.5582C2.06556 21.5606 2.06576 21.5629 2.06596 21.5652C2.07777 21.7027 2.20215 21.8026 2.33946 21.7888C2.47471 21.7751 2.5749 21.6544 2.56327 21.5189C2.5516 21.3831 2.43165 21.2812 2.29569 21.2915ZM2.26579 19.2959C2.12679 19.2906 2.00983 19.3999 2.00635 19.539C2.00286 19.6786 2.11514 19.7939 2.25482 19.7948C2.39074 19.7956 2.50278 19.6875 2.50624 19.5516C2.50972 19.415 2.40229 19.301 2.26579 19.2959ZM2.45258 17.3089C2.31565 17.2891 2.18881 17.3846 2.16994 17.5217C2.15093 17.6598 2.24883 17.7867 2.38724 17.8033C2.52241 17.8195 2.64562 17.7243 2.66404 17.5894C2.68257 17.4537 2.58815 17.3284 2.45258 17.3089ZM2.86416 15.3565C2.73011 15.3211 2.59292 15.4018 2.55867 15.5361C2.52423 15.6712 2.60708 15.8083 2.74266 15.8406C2.87527 15.8721 3.00868 15.7915 3.04232 15.6594C3.07611 15.5266 2.9966 15.3915 2.86416 15.3565ZM3.49393 13.4627C3.36569 13.4121 3.21905 13.4744 3.17008 13.6033C3.16932 13.6053 3.16857 13.6073 3.16782 13.6092C3.11871 13.7386 3.18769 13.883 3.31794 13.9298C3.44551 13.9756 3.58746 13.9101 3.63559 13.7834C3.68391 13.6562 3.62048 13.5127 3.49393 13.4627ZM4.33164 11.6518C4.21003 11.5876 4.05784 11.633 3.99483 11.7552C3.99392 11.757 3.99302 11.7587 3.99211 11.7605C3.9288 11.8834 3.98045 12.0346 4.10425 12.0961C4.22585 12.1565 4.37458 12.1077 4.43691 11.9871C4.49955 11.8659 4.45231 11.7155 4.33164 11.6518ZM5.36994 9.94736C5.25649 9.86963 5.09952 9.89692 5.02302 10.0112C5.02145 10.0136 5.01988 10.0159 5.01831 10.0182C4.94169 10.1328 4.97714 10.2885 5.09321 10.3629C5.20734 10.436 5.36071 10.4037 5.43619 10.2911C5.5118 10.1783 5.48194 10.0241 5.36994 9.94736ZM6.59163 8.36986C6.48759 8.27962 6.3288 8.28952 6.24005 8.39483C6.23861 8.39654 6.23717 8.39824 6.23574 8.39995C6.14662 8.50578 6.16375 8.66492 6.27101 8.75232C6.37613 8.83797 6.5318 8.82338 6.61911 8.71962C6.70671 8.61552 6.69442 8.459 6.59163 8.36986ZM7.98231 6.93911C7.88827 6.8382 7.72855 6.83367 7.62841 6.92853C7.52782 7.02382 7.5242 7.18439 7.62104 7.2835C7.71606 7.38074 7.87214 7.38325 7.97089 7.2898C8.07008 7.19593 8.07542 7.03901 7.98231 6.93911ZM9.52354 5.67128C9.44184 5.56055 9.28495 5.53553 9.17506 5.61837C9.17339 5.61963 9.17172 5.62089 9.17005 5.62215C9.05927 5.70572 9.04091 5.86522 9.12671 5.97428C9.21035 6.08059 9.36478 6.10085 9.47275 6.01938C9.58176 5.93713 9.60462 5.78116 9.52354 5.67128ZM11.1973 4.58458C11.1288 4.46546 10.9757 4.42225 10.8574 4.4921C10.8552 4.49343 10.8529 4.49476 10.8507 4.49608C10.7318 4.56634 10.6961 4.72228 10.7685 4.83985C10.8395 4.9551 10.9914 4.99259 11.108 4.92374C11.2251 4.85455 11.2651 4.70248 11.1973 4.58458ZM12.9824 3.69027C12.9273 3.56508 12.781 3.50646 12.6562 3.56233C12.6539 3.56338 12.6515 3.56442 12.6492 3.56547C12.523 3.62201 12.4695 3.77259 12.5283 3.89774C12.5859 4.02025 12.7321 4.07443 12.8556 4.01901C12.9806 3.96293 13.0375 3.81565 12.9824 3.69027ZM14.8574 3.00742C14.8175 2.87583 14.6779 2.79878 14.5468 2.8404C14.544 2.84129 14.5412 2.84218 14.5384 2.84308C14.4072 2.88483 14.3376 3.02845 14.3817 3.1589C14.4252 3.28734 14.5654 3.35777 14.6946 3.31683C14.8238 3.27593 14.8967 3.13705 14.8574 3.00742ZM16.7964 2.53664C16.7715 2.40204 16.6424 2.31127 16.508 2.33756C16.5054 2.33808 16.5027 2.3386 16.5001 2.33912C16.3637 2.36589 16.2781 2.50257 16.3076 2.63836C16.3362 2.76985 16.4654 2.85601 16.5973 2.82943C16.7318 2.80233 16.8214 2.67151 16.7964 2.53664ZM18.7766 2.29272C18.7673 2.15551 18.6485 2.04902 18.5114 2.06009C18.5083 2.06035 18.5051 2.0606 18.502 2.06086C18.3648 2.07204 18.2654 2.19683 18.2792 2.33375C18.2928 2.46856 18.4134 2.56894 18.5484 2.55793C18.6835 2.54692 18.7858 2.42792 18.7766 2.29272ZM20.4987 2.25793C20.5022 2.12028 20.3938 2.00365 20.2562 2.00192C20.2541 2.0019 20.2521 2.00187 20.2501 2.00185C20.1119 2.00015 19.9996 2.11405 19.9996 2.25223C19.9996 2.38814 20.1099 2.4998 20.2458 2.50159C20.3819 2.50338 20.4953 2.39408 20.4987 2.25793Z" fill="white"/>
<path id="Vector_2" fill-rule="evenodd" clip-rule="evenodd" d="M19.9995 2.96436C29.4089 2.96436 37.0368 10.5922 37.0368 20.0016C37.0368 28.0419 31.4666 34.7803 23.975 36.5713C23.9875 33.0769 23.9906 29.703 23.9681 27.8956C23.9083 23.125 27.3665 21.2169 27.3665 21.2169C23.7289 16.8038 20.5087 10.0657 20.5087 10.0657V20.1441C20.9044 20.266 21.2433 20.5258 21.4636 20.8763C21.684 21.2268 21.7713 21.6448 21.7097 22.0542C21.6481 22.4637 21.4416 22.8374 21.1278 23.1075C20.814 23.3776 20.4137 23.5262 19.9996 23.5262C19.5856 23.5262 19.1852 23.3776 18.8714 23.1075C18.5576 22.8374 18.3511 22.4637 18.2895 22.0542C18.2279 21.6448 18.3152 21.2268 18.5356 20.8763C18.756 20.5258 19.0948 20.266 19.4905 20.1441V10.0657C19.4905 10.0657 16.2701 16.8038 12.6325 21.2169C12.6325 21.2169 16.0908 23.125 16.0311 27.8956C16.0084 29.703 16.0116 33.0769 16.0243 36.5713C8.53259 34.7803 2.96246 28.0419 2.96246 20.0016C2.96246 10.5922 10.59 2.96436 19.9995 2.96436Z" fill="white"/>
<path id="Vector_3" fill-rule="evenodd" clip-rule="evenodd" d="M16.0264 36.5729C16.0137 33.0781 16.0097 29.7035 16.0332 27.8958C16.0929 23.1252 12.6346 21.2172 12.6346 21.2172C16.2722 16.8041 19.4926 10.0659 19.4926 10.0659C19.4926 10.0659 14.832 18.1494 11.6456 21.3035C11.6456 21.3035 14.3867 23.1957 14.7442 25.3739C15.0548 27.2667 15.0635 31.8053 14.5913 36.1622C15.0609 36.3192 15.5392 36.4561 16.0264 36.5729Z" fill="white"/>
<path id="Vector_4" fill-rule="evenodd" clip-rule="evenodd" d="M23.977 36.5725C23.9895 33.0778 23.9926 29.7031 23.9701 27.8953C23.9103 23.1249 27.3685 21.2167 27.3685 21.2167C23.731 16.8039 20.5107 10.0654 20.5107 10.0654C20.5107 10.0654 25.1712 18.1489 28.3576 21.3032C28.3576 21.3032 25.6165 23.1952 25.2592 25.3736C24.9485 27.2663 24.9398 31.8049 25.4118 36.1617C24.9423 36.3188 24.464 36.4558 23.977 36.5725Z" fill="white"/>
<path id="Vector_5" fill-rule="evenodd" clip-rule="evenodd" d="M19.9995 22.9079C19.6826 22.9078 19.3766 22.7916 19.1395 22.5813C18.9023 22.371 18.7504 22.0811 18.7124 21.7664C18.6745 21.4517 18.7531 21.134 18.9334 20.8733C19.1137 20.6126 19.3832 20.427 19.691 20.3515L19.491 10.0659V20.1443C19.095 20.2659 18.7558 20.5256 18.5351 20.8763C18.3145 21.2269 18.227 21.645 18.2886 22.0547C18.3503 22.4644 18.557 22.8383 18.8711 23.1084C19.1851 23.3785 19.5858 23.5269 20 23.5266L19.9995 22.9079Z" fill="white"/>
<path id="Vector_6" fill-rule="evenodd" clip-rule="evenodd" d="M19.9998 22.9079C20.3168 22.9078 20.6227 22.7916 20.8599 22.5813C21.097 22.371 21.2489 22.0811 21.2869 21.7664C21.3249 21.4517 21.2463 21.134 21.066 20.8733C20.8857 20.6126 20.6162 20.427 20.3083 20.3515L20.5083 10.0659V20.1443C20.9044 20.2659 21.2436 20.5257 21.4642 20.8763C21.6849 21.2269 21.7724 21.6451 21.7107 22.0548C21.649 22.4644 21.4423 22.8384 21.1282 23.1085C20.8141 23.3786 20.4134 23.527 19.9991 23.5266L19.9998 22.9079Z" fill="white"/>
</g>
</g>
<defs>
<clipPath id="clip0_16680_419">
<rect width="40" height="40" fill="white"/>
</clipPath>
</defs>
</svg>
