<svg width="67" height="49" viewBox="0 0 67 49" fill="none" xmlns="http://www.w3.org/2000/svg">
<path d="M15.3301 23C15.3301 21.8954 16.2255 21 17.3301 21L58.3301 21C62.7484 21 66.3301 24.5817 66.3301 29L66.3301 41C66.3301 45.4183 62.7484 49 58.3301 49L23.3301 49C18.9118 49 15.3301 45.4183 15.3301 41L15.3301 23Z" fill="#21232B"/>
<path d="M31.7538 36.296L27.8338 29.432L29.5938 29.432L32.1698 34.056C32.3298 34.328 32.4258 34.552 32.5538 34.824C32.6978 34.536 32.7298 34.44 32.9378 34.056L35.4978 29.432L37.2098 29.432L33.3218 36.296L33.3218 41L31.7538 41L31.7538 36.296ZM36.3748 37.08C36.3748 34.664 38.1028 32.968 40.4548 32.968C42.7908 32.968 44.5188 34.664 44.5188 37.08C44.5188 39.496 42.7908 41.192 40.4548 41.192C38.1028 41.192 36.3748 39.496 36.3748 37.08ZM37.8948 37.08C37.8948 38.712 38.9348 39.848 40.4548 39.848C41.9588 39.848 43.0148 38.712 43.0148 37.08C43.0148 35.448 41.9588 34.312 40.4548 34.312C38.9348 34.312 37.8948 35.448 37.8948 37.08ZM51.4042 33.176L52.8922 33.176L52.8922 41L51.5482 41L51.3882 39.816C50.9402 40.632 49.9002 41.192 48.7482 41.192C46.9242 41.192 45.9002 39.96 45.9002 38.04L45.9002 33.176L47.4042 33.176L47.4042 37.544C47.4042 39.224 48.1242 39.864 49.2762 39.864C50.6522 39.864 51.4042 38.984 51.4042 37.304L51.4042 33.176Z" fill="white"/>
<path d="M4.33178 3.66677C4.33178 3.35723 4.41969 3.05381 4.58566 2.7905C4.75164 2.52719 4.98911 2.3144 5.27148 2.17597C5.55385 2.03754 5.86996 1.97894 6.18439 2.00674C6.49881 2.03453 6.79913 2.14763 7.05169 2.33335L20.6478 12.334C21.9534 13.2974 21.2598 15.3342 19.6279 15.3342L12.9182 15.3342C12.6574 15.3344 12.4002 15.3935 12.1665 15.5068C11.9327 15.62 11.7287 15.7846 11.5701 15.9875L7.37808 21.3445C6.39041 22.608 4.33008 21.9229 4.33008 20.3295L4.33178 3.66677Z" fill="#21232B"/>
<path d="M4.33178 3.66677C4.33178 3.35723 4.41969 3.05381 4.58566 2.7905C4.75164 2.52719 4.98911 2.3144 5.27148 2.17597C5.55385 2.03754 5.86996 1.97894 6.18439 2.00674C6.49881 2.03453 6.79913 2.14763 7.05169 2.33335L20.6478 12.334C21.9534 13.2974 21.2598 15.3342 19.6279 15.3342L12.9182 15.3342C12.6574 15.3344 12.4002 15.3935 12.1665 15.5068C11.9327 15.62 11.7287 15.7846 11.5701 15.9875L7.37808 21.3445C6.39041 22.608 4.33008 21.9229 4.33008 20.3295L4.33178 3.66677ZM19.6262 13.6674L6.03172 3.66844L6.03172 20.3311L10.2221 14.9758C10.5393 14.5696 10.9477 14.2405 11.4155 14.0139C11.8833 13.7873 12.3981 13.6693 12.9199 13.6691L19.6262 13.6674Z" fill="white"/>
</svg>
